<svg width="14" height="14" viewBox="0 0 14 14" fill="none" xmlns="http://www.w3.org/2000/svg">
<path d="M7.00001 0.333336C6.12453 0.333336 5.25762 0.505774 4.44879 0.840806C3.63995 1.17584 2.90502 1.6669 2.28596 2.28596C1.03572 3.5362 0.333344 5.23189 0.333344 7C0.333344 8.76811 1.03572 10.4638 2.28596 11.714C2.90502 12.3331 3.63995 12.8242 4.44879 13.1592C5.25762 13.4942 6.12453 13.6667 7.00001 13.6667C8.76812 13.6667 10.4638 12.9643 11.7141 11.714C12.9643 10.4638 13.6667 8.76811 13.6667 7C13.6667 6.12452 13.4942 5.25762 13.1592 4.44878C12.8242 3.63994 12.3331 2.90501 11.7141 2.28596C11.095 1.6669 10.3601 1.17584 9.55123 0.840806C8.7424 0.505774 7.87549 0.333336 7.00001 0.333336ZM7.00001 1.66667C8.4145 1.66667 9.77105 2.22857 10.7712 3.22877C11.7714 4.22896 12.3333 5.58551 12.3333 7C12.3333 8.41449 11.7714 9.77104 10.7712 10.7712C9.77105 11.7714 8.4145 12.3333 7.00001 12.3333C5.58552 12.3333 4.22897 11.7714 3.22877 10.7712C2.22858 9.77104 1.66668 8.41449 1.66668 7C1.66668 5.58551 2.22858 4.22896 3.22877 3.22877C4.22897 2.22857 5.58552 1.66667 7.00001 1.66667ZM3.66668 5.66667L7.00001 9L10.3333 5.66667H3.66668Z" fill="#4F4F4F"/>
</svg>
