<svg width="16" height="16" viewBox="0 0 16 16" fill="none" xmlns="http://www.w3.org/2000/svg">
<path d="M8.00033 10.6667C8.35395 10.6667 8.69309 10.8072 8.94313 11.0573C9.19318 11.3073 9.33366 11.6465 9.33366 12.0001C9.33366 12.3537 9.19318 12.6928 8.94313 12.9429C8.69309 13.1929 8.35395 13.3334 8.00033 13.3334C7.6467 13.3334 7.30757 13.1929 7.05752 12.9429C6.80747 12.6928 6.66699 12.3537 6.66699 12.0001C6.66699 11.6465 6.80747 11.3073 7.05752 11.0573C7.30757 10.8072 7.6467 10.6667 8.00033 10.6667ZM8.00033 6.66675C8.35395 6.66675 8.69309 6.80722 8.94313 7.05727C9.19318 7.30732 9.33366 7.64646 9.33366 8.00008C9.33366 8.3537 9.19318 8.69284 8.94313 8.94289C8.69309 9.19294 8.35395 9.33342 8.00033 9.33342C7.6467 9.33342 7.30757 9.19294 7.05752 8.94289C6.80747 8.69284 6.66699 8.3537 6.66699 8.00008C6.66699 7.64646 6.80747 7.30732 7.05752 7.05727C7.30757 6.80722 7.6467 6.66675 8.00033 6.66675ZM8.00033 2.66675C8.35395 2.66675 8.69309 2.80722 8.94313 3.05727C9.19318 3.30732 9.33366 3.64646 9.33366 4.00008C9.33366 4.3537 9.19318 4.69284 8.94313 4.94289C8.69309 5.19294 8.35395 5.33341 8.00033 5.33341C7.6467 5.33341 7.30757 5.19294 7.05752 4.94289C6.80747 4.69284 6.66699 4.3537 6.66699 4.00008C6.66699 3.64646 6.80747 3.30732 7.05752 3.05727C7.30757 2.80722 7.6467 2.66675 8.00033 2.66675Z" fill="#828282"/>
</svg>
