<svg width="14" height="12" viewBox="0 0 14 12" fill="none" xmlns="http://www.w3.org/2000/svg">
<path d="M11.6666 3.33333C12.7733 3.33333 13.6666 4.22667 13.6666 5.33333V9.33333H11V12H2.99998V9.33333H0.333313V5.33333C0.333313 4.22667 1.22665 3.33333 2.33331 3.33333H2.99998V0H11V3.33333H11.6666ZM4.33331 1.33333V3.33333H9.66665V1.33333H4.33331ZM9.66665 10.6667V8H4.33331V10.6667H9.66665ZM11 8H12.3333V5.33333C12.3333 4.96667 12.0333 4.66667 11.6666 4.66667H2.33331C1.96665 4.66667 1.66665 4.96667 1.66665 5.33333V8H2.99998V6.66667H11V8ZM11.6666 5.66667C11.6666 6.03333 11.3666 6.33333 11 6.33333C10.6333 6.33333 10.3333 6.03333 10.3333 5.66667C10.3333 5.3 10.6333 5 11 5C11.3666 5 11.6666 5.3 11.6666 5.66667Z" fill="#F0F6FA"/>
</svg>
