<svg width="20" height="21" viewBox="0 0 20 21" fill="none" xmlns="http://www.w3.org/2000/svg">
<path d="M6.24935 14.2499H11.291C11.116 14.6416 10.9827 15.0583 10.9077 15.4999H6.24935C3.71602 15.4999 1.66602 13.4499 1.66602 10.9166C1.66602 8.38325 3.71602 6.33325 6.24935 6.33325H14.9993C16.841 6.33325 18.3327 7.82492 18.3327 9.66659C18.3327 10.4249 18.0743 11.1166 17.641 11.6749C17.191 11.4999 16.7077 11.3916 16.2077 11.3583C16.7327 10.9833 17.0827 10.3666 17.0827 9.66659C17.0827 8.51659 16.1493 7.58325 14.9993 7.58325H6.24935C4.40768 7.58325 2.91602 9.07492 2.91602 10.9166C2.91602 12.7583 4.40768 14.2499 6.24935 14.2499ZM7.91602 11.7499C7.45768 11.7499 7.08268 11.3749 7.08268 10.9166C7.08268 10.4583 7.45768 10.0833 7.91602 10.0833H14.166V8.83325H7.91602C6.76602 8.83325 5.83268 9.76659 5.83268 10.9166C5.83268 12.0666 6.76602 12.9999 7.91602 12.9999H12.116C12.591 12.4666 13.1743 12.0416 13.841 11.7499H7.91602ZM16.666 15.4999V12.9999H14.9993V15.4999H12.4993V17.1666H14.9993V19.6666H16.666V17.1666H19.166V15.4999H16.666Z" fill="#0077BA"/>
</svg>
