<svg width="16" height="17" viewBox="0 0 16 17" fill="none" xmlns="http://www.w3.org/2000/svg">
<path d="M13.8333 2.00004H13V0.333374H11.3333V2.00004H4.66667V0.333374H3V2.00004H2.16667C1.25 2.00004 0.5 2.75004 0.5 3.66671V15.3334C0.5 16.2584 1.25 17 2.16667 17H13.8333C14.7583 17 15.5 16.2584 15.5 15.3334V3.66671C15.5 2.75004 14.7583 2.00004 13.8333 2.00004ZM13.8333 15.3334H2.16667V7.00004H13.8333V15.3334ZM2.16667 5.33337V3.66671H13.8333V5.33337H2.16667ZM3.83333 8.66671H12.1667V10.3334H3.83333V8.66671ZM3.83333 12H9.66667V13.6667H3.83333V12Z" fill="#0077BA"/>
</svg>
