<svg width="20" height="21" viewBox="0 0 20 21" fill="none" xmlns="http://www.w3.org/2000/svg">
<path d="M7.49935 18.8334C7.27834 18.8334 7.06637 18.7456 6.91009 18.5893C6.75381 18.4331 6.66602 18.2211 6.66602 18.0001V15.5001H3.33268C2.89065 15.5001 2.46673 15.3245 2.15417 15.0119C1.84161 14.6994 1.66602 14.2754 1.66602 13.8334V3.83341C1.66602 2.90841 2.41602 2.16675 3.33268 2.16675H16.666C17.108 2.16675 17.532 2.34234 17.8445 2.6549C18.1571 2.96746 18.3327 3.39139 18.3327 3.83341V13.8334C18.3327 14.2754 18.1571 14.6994 17.8445 15.0119C17.532 15.3245 17.108 15.5001 16.666 15.5001H11.5827L8.49935 18.5917C8.33268 18.7501 8.12435 18.8334 7.91602 18.8334H7.49935ZM8.33268 13.8334V16.4001L10.8993 13.8334H16.666V3.83341H3.33268V13.8334H8.33268ZM9.16602 5.50008H10.8327V8.00008H13.3327V9.66675H10.8327V12.1667H9.16602V9.66675H6.66602V8.00008H9.16602V5.50008Z" fill="#0077BA"/>
</svg>
