<svg width="20" height="21" viewBox="0 0 20 21" fill="none" xmlns="http://www.w3.org/2000/svg">
<path d="M15.834 14.6666V16.3333H5.83398V14.6666C5.83398 14.6666 5.83398 11.3333 10.834 11.3333C15.834 11.3333 15.834 14.6666 15.834 14.6666ZM13.334 7.16663C13.334 6.67217 13.1874 6.18882 12.9127 5.7777C12.638 5.36658 12.2475 5.04615 11.7907 4.85693C11.3339 4.66771 10.8312 4.6182 10.3463 4.71466C9.86131 4.81113 9.41585 5.04923 9.06622 5.39886C8.71659 5.74849 8.47848 6.19395 8.38202 6.6789C8.28556 7.16385 8.33507 7.66652 8.52429 8.12334C8.7135 8.58015 9.03394 8.9706 9.44506 9.2453C9.85618 9.52 10.3395 9.66663 10.834 9.66663C11.497 9.66663 12.1329 9.40324 12.6018 8.93439C13.0706 8.46555 13.334 7.82967 13.334 7.16663ZM16.0007 11.3833C16.4562 11.8035 16.8234 12.3103 17.081 12.8741C17.3385 13.4378 17.4812 14.0472 17.5007 14.6666V16.3333H20.0007V14.6666C20.0007 14.6666 20.0007 11.7916 16.0007 11.3833ZM15.0007 4.66663C14.7489 4.66678 14.4987 4.70614 14.259 4.78329C14.7465 5.48243 15.0079 6.31428 15.0079 7.16663C15.0079 8.01897 14.7465 8.85082 14.259 9.54996C14.4987 9.62712 14.7489 9.66648 15.0007 9.66663C15.6637 9.66663 16.2996 9.40324 16.7684 8.93439C17.2373 8.46555 17.5007 7.82967 17.5007 7.16663C17.5007 6.50359 17.2373 5.8677 16.7684 5.39886C16.2996 4.93002 15.6637 4.66663 15.0007 4.66663ZM6.11732 7.93329L7.08398 9.10829L3.12565 13.0666L0.833984 10.5666L1.80065 9.59996L3.12565 10.9166L6.11732 7.93329Z" fill="#0077BA"/>
</svg>
