<svg width="32" height="32" viewBox="0 0 32 32" fill="none" xmlns="http://www.w3.org/2000/svg">
<path d="M16 2.66666C8.66667 2.66666 2.66667 8.66666 2.66667 16C2.66667 23.3333 8.66667 29.3333 16 29.3333C23.3333 29.3333 29.3333 23.3333 29.3333 16C29.3333 8.66666 23.3333 2.66666 16 2.66666ZM16 26.6667C10.12 26.6667 5.33334 21.88 5.33334 16C5.33334 10.12 10.12 5.33332 16 5.33332C21.88 5.33332 26.6667 10.12 26.6667 16C26.6667 21.88 21.88 26.6667 16 26.6667ZM22.12 10.1067L13.3333 18.8933L9.88 15.4533L8 17.3333L13.3333 22.6667L24 12L22.12 10.1067Z" fill="#00BA8D"/>
</svg>
